<?xml version="1.0" encoding="utf-8"?>
<!-- Generator: Adobe Illustrator 22.0.1, SVG Export Plug-In . SVG Version: 6.00 Build 0)  -->
<svg version="1.1" xmlns="http://www.w3.org/2000/svg" xmlns:xlink="http://www.w3.org/1999/xlink" x="0px" y="0px"
	 viewBox="0 0 149.3 172.7" style="enable-background:new 0 0 149.3 172.7;" xml:space="preserve">
<style type="text/css">
	.st0{fill:#020303;}
</style>
<g id="Calque_0_xA0_Image_1_">
	<g>
		<path class="st0" d="M92.8,45.5c0,0-3.9-0.5-3.6-3.1c0.4-1.7,4.5-10.7,6.3-11.9c1.9-0.3,4.3,0,3.5,2.7c-0.8,2.6-2.4,11.6-3.3,12.2
			C94.8,45.9,93.1,45.5,92.8,45.5z"/>
		<path class="st0" d="M2.2,78.6c0,0,0.4-3.9,7.3-3.1c4.4,0.1,9.8-0.7,8.7,3.5c-0.7,3-0.8,3.5-4.5,2.8C11.1,81,1.6,80.9,2.2,78.6z"
			/>
		<path class="st0" d="M9.1,130.9c0.1-0.2,2.4-3.2,5.7-4.5c2.6-1,6.9-1.9,7.2,0.4c0.3,2,0.6,4.2-5.8,5.8
			C14.1,133,7.5,134.4,9.1,130.9z"/>
		<path class="st0" d="M39.8,169.6c0,0-0.3-9.3,3.8-10.5c2.3,0.2,3,0.8,2.1,5.3c-0.5,2.5-1.6,5.8-2.8,6.3
			C41.8,170.8,39.3,170.5,39.8,169.6z"/>
		<path class="st0" d="M99.8,162.9c0,0-0.4-2.9,1.1-4.5c1.1-0.9,3.5-1,4.8,1.5c0.8,1.5,2.1,6.5,1.2,7.9c-0.7,0.8-3,1.4-4.1,0
			C101.7,166.4,100,164.4,99.8,162.9z"/>
		<path class="st0" d="M134.4,118.4c0,0,2.4-2.4,6.2-2.8c3.1,0.3,4.5,0,5.6,1.1c1.1,1.2,2.6,3.2,1.8,4.1c-0.8,1-5.8,2.3-9.3,1.8
			S132.8,121.1,134.4,118.4z"/>
		<path class="st0" d="M122.1,72.1c0.1-0.3,0.5-2.3,5.3-4.7c2.9-1.1,5.5-1.7,5.9-0.2c0.3,1.5,0.4,3.8-2.4,5.5
			c-2.1,1.3-5.1,2.3-7,1.4C122.1,73.2,121.8,72.8,122.1,72.1z"/>
		<path class="st0" d="M78.3,49.3c-5.9-7.3-8.5-30.4-8.1-32.8c1.5-0.5,5.1-2.6,5.8-4.9c0.4-5.3-3-8.5-5.1-10c-4.9-1.5-8,0.9-9.4,2.5
			c-2.1,2.4,0.5,7,2.6,8.9c0.8,11.8-2.5,23.9-3.9,27.5c-4,4.3-2.1,2.8-5.4,1.6c-5.9-2.6-11.1-18.6-11-20.1c0.7-1.1,2.4-3.9,2.6-7.4
			c0.3-5.8-5.3-7.8-6-7.1s-0.8,2.7-1.8,2.8c-1,0.1-0.8-1.2-1.8-2.2s-2.4-0.6-4.6,0.7c-5.1,9.5,4.2,13.9,6.2,15.4
			c2.5,1.8,5.5,19.3,6.5,25.3c0.9,7-4.7,5.9-8.2,5.6c-3.6,0-15.4-7.8-17.3-9.6c0.5-4.8-1.7-8.7-4.7-11.2c-6.5-2-9.4,3.5-9.4,3.5
			c-1.3,1.7-0.6,3.3,0.6,6.7c2.3,5.7,7.4,6.7,12.3,6.2c8.3,5.5,16.6,16.3,18.1,18.4c0.8,5.8,4.9,6.8,6.6,7.1
			c11.1,0.3,30.8-14.7,32.9-17C79.6,56.2,78.4,53.3,78.3,49.3z M37.4,12.9c0,0,2.4-1,3,1.5C40.6,15.9,40.3,18.1,37.4,12.9z
			 M11.6,43.1c-0.6-1.8-1.1-2.4,0-3.3c0,0,2.4,1.6,2.3,3.3C13.7,43.9,13.1,45.2,11.6,43.1z M65.8,5.1c0,0,4,1.5,4.5,4.2
			C68.6,9.7,65.1,8.8,65.8,5.1z M46.8,70.4c0,0,15.2-13.6,24.2-14.5C70.6,58.8,52.6,71.1,46.8,70.4z M71.1,51.2
			c-13.7,0.7-28.1,15.1-28.1,15.1c-3.8-1.5-2.6-2.3-4.8-4.8c1.5,0.3,4.5,0.1,7.9-1.3c4.6-2.8,4.8-11,4.5-14c1.8,3.6,6.4,3.6,8.4,3.1
			c3.5-0.6,7.6-9.7,8.6-12.6C70.3,42.3,71.2,48.6,71.1,51.2z"/>
		<path class="st0" d="M128.5,121.6c0.1-10-4-15.9-4.8-17.5c-0.1-0.2-0.1-0.5,0.1-0.7c1.4-1.8,1.7-4.1,1.6-8.2c0,0,0,0,0-0.1
			c-1-9.9-3-13.4-4.3-14.7c-0.4-0.4-1.1-0.1-1.3,0.7v17.9c0.2,0.2-0.1,0.5-0.5,0.4c-0.4,0-1-0.1-1.4,0c-0.3,0-0.6-0.1-0.9-0.3
			l-13.3-8.8c-0.7-0.5-1.1-1.2-1.1-2c0,0,0,0,0,0c0-0.1,0-0.2,0-0.2c2.8-6.6,2-19.7,0.6-24.5c0,0,0-0.1,0-0.1
			c-2.9-5.9-4.2-5.9-6.1-5.9c-1.9,0-2.1,0.9-1.8,2.6c0,0.2,0.1,0.3,0.3,0.5c2.2,1.7,3.6,8,3.6,8.2c0,0.2,0,12.4,0,12.4s0,0-0.5,0.1
			c-6-14.5-14.4-16.5-17.4-16.8c0,0-0.1,0-0.1,0c-4.7,0.2-6.9,4-7.4,7.5c0,0.1,0,0.1,0,0.2c0.4,6.7,5.1,6.2,5.3,6.6
			c0.2,0.3,0.2,2,0.1,3.3c0,0.4-0.5,0.7-0.9,0.6c-0.8-0.3-2-1.1-3.7-1.1c-4,0.2-4.5,2.3-5.5,3.6c-0.2,0.2-0.5,0.3-0.8,0.2
			c-2-0.8-2.6-6.5-3.2-8.6c0-0.1-0.1-0.3-0.2-0.3c-1-0.7-3-1-4.5,0c-0.1,0.1-0.2,0.2-0.3,0.3c-0.7,2,2.7,11,3.3,12.8
			c0.4,1.5,0.4,3.3-0.7,4.5c-0.2,0.2-0.6,0.3-0.8,0.1c-2.3-1.8-4.2-14.9-4.4-16.1c-0.2-1.3-0.8-1.2-3-1.5c-0.1,0-0.3,0-0.4,0.1
			c-2.6,1.3-0.9,6.9-0.4,7.9c2.4,6.1,1.2,13.2,0.3,15.9c-0.1,0.5-0.7,0.6-1.1,0.3c-5.4-4.7-6.5-18.8-6.5-21.6c0-0.2-0.1-0.3-0.2-0.5
			c-1.6-1.5-3.3-0.5-3.7,0.2c-0.5,0.7,1.1,23.4,1.2,28c0,0.4-0.3,0.7-0.7,0.7c-2-0.3-4.3-2.1-5.1-3.1c-0.2-0.2-0.2-0.6,0-0.8
			c5.1-6.8,2-8.1,0.3-9.7c-0.1-0.1-0.3-0.2-0.5-0.2c-2.3,0.3-5.6-1.2-7.6-2.2c-0.1,0-0.1-0.1-0.1-0.1c-5.1-4.3-6.5-2.3-6.5-2.3
			c-0.7,0.4-0.7,1.4-0.1,3.2c0,0.1,0.1,0.2,0.3,0.3c5.6,3.9,9.2,19.8,9.4,20.9c0,0.1,0,0.1,0,0.1l-0.1,2.5l-1.1,0.1
			c0,0-0.2-0.4-1.9-1.1c-1.8-0.2-2.6,1.1-3,2.9c0,0.1,0,0.2,0,0.3c1.6,7.1,9.1,11.7,12.1,12.3c0,0,0.1,0,0.1,0
			c4.3,0.1,6-6.2,6.2-6.9c0,0,0-0.1,0-0.1l0.1-4.8c0-0.4,0.3-0.6,0.7-0.6c0.1,0,0.1,0,0.2,0c0.4,0,0.7,0.3,0.7,0.7
			c-0.1,2.3,0.8,3,3,2.9c2.9-0.4,2.6-3.3,1.3-5.6c-1.3-2,0.3-3.3,1.3-4.4c1.1-1.1,2.8,1.3,4.5,2.4c0.1,0,0.1,0.1,0.2,0.1
			c1.5,0.4,2.4-0.3,2.8-0.6c0.1-0.1,0.3-0.2,0.5-0.2c0.3,0,0.8,0.1,1.4,0.4c0.2,0.1,0.3,0.3,0.3,0.6c0,3.9-2.1,6.5-3.2,7.4
			c-0.1,0-0.1,0.1-0.2,0.1c-11.5,4.4-16.6,12.7-19.3,16.4c-2.7,3.9-1.8,5.1-0.2,6.9c0.1,0.1,0.2,0.2,0.4,0.2
			c1.7,0.3,3.7-0.8,4.3-2.9c1.5-5.8,5.8-7.5,8.2-8.5c0.4-0.1,0.8,0.1,0.9,0.4c1.5,5.5,8.7,16.2,9.6,17.1c0.8,1,0.6,1.8,0.4,4.4
			c0,0.2-0.1,0.4-0.3,0.5c-5.3,4.2-5.1,5.8-4.6,7.9c0.6,1.5,3.8,1.4,5,0c8-11.1,15.4-11,18.4-11.7c0,0,0.1,0,0.1,0
			c11.7-0.6,16.7-3.9,19.7-6.3c0.1-0.1,0.1-0.1,0.2-0.2c2.2-3.9-0.1-4-2-4.6c-0.3-0.1-0.6,0-0.7,0.2c-0.8,1.1-2.8,2.9-10,4.9
			c-0.1,0-0.1,0-0.2,0c-8.4,0.3-8.9,1.1-13.4,2.4c-4.7,1.3-4.6-0.9-5.3-2.4c-0.7-1.6,0.4-2,2.4-3.3c2-0.6,3.3,1.6,3.7,2.6
			c0.1,0.2,0.3,0.4,0.6,0.4h0.6c0.4,0,0.7-0.3,0.7-0.7c0-0.3,0-0.7,0-1.1c0-0.4,0.5-0.7,0.9-0.5c0.9,0.3,2.8,0.3,3.8-0.3
			c4-2.7-1.7-16.9-2.8-19.5c-0.1-0.2,0-0.5,0.1-0.7l2.8-2.9c0.3-0.4,1-0.2,1.1,0.3c0.9,3,3.6,11.4,4.5,14.5c1.1,3.6,2.4,3.1,3.7,1.9
			c3.6-2-1.6-12.3-1.9-13.1s-0.3-1.2,0.4-2.4c0.9,4.9,5.2,11.6,7.3,11.6c2.3,0,4.6-2.9,5.9-4.4c0.3-0.4,0.9-0.2,1.1,0.2
			c3.8,11.4,11,11.5,14.1,11.1C127.9,138.9,128.6,124.7,128.5,121.6z M32.8,98.8c-0.3-0.4,0.1-1,0.6-1c1.2,0,2.7,0.2,2.7,1
			c0,1.4-0.6,2.8-1.3,3.4C34.4,102.6,33.7,100.2,32.8,98.8z M38.7,123.6c-1.6-2.7-1.8-9.5-1.8-12c0-0.5,0.1-0.9,0.6-1
			c1.6-0.1,4,0.3,4.3,3.1c0.1,3.4,0.6,8.3-1.9,10.3C39.4,124.3,39,124,38.7,123.6z M49.3,106.7c-0.4,0-0.8-0.4-0.7-0.8
			c0.2-0.6,0.3-1.4,0.3-2.1c0-1,0.5,0.7,1,2C50.1,106.3,49.8,106.8,49.3,106.7C49.3,106.7,49.3,106.7,49.3,106.7z M60.8,109.6
			c-0.4,1.1-3.5-0.5-3.4-1.4c0-0.4,0.3-3.4,1.1-3.6C59.4,104.3,61.2,108.4,60.8,109.6z M80.1,69.4c0-0.4,0.4-0.7,0.8-0.7
			c2.1,0.3,7.9,2,11,11.3c2.2,4.9,3.6,14.8,2.1,16.9c-0.1,0.1-0.2,0.2-0.3,0.2c-1.6,0.7-3.7,1.7-5.8-3.9c-1.6-2.4-2.7-10.4-2.7-16.4
			c0-0.2-0.1-0.4-0.3-0.5c-0.7-0.5-1.2-1.1-4-0.9c-0.4,0-0.7-0.3-0.7-0.7V69.4z M76,87.1c1.1,1.6,2.7,3.9,2.1,11.9
			c0,0.5-0.6,0.8-1,0.5c-1.4-0.8-1.8-0.9-2.7-5.5c0,0-1.1-4.8,0.5-6.9C75.2,86.7,75.8,86.7,76,87.1z M57.4,130.2l2.6-2.2
			c0.4-0.3,1-0.1,1.1,0.4l2.2,11.4c0.1,0.7-0.8,1.1-1.2,0.5C59.9,136.4,56.8,130.8,57.4,130.2z M69.9,138.4
			c-0.1-0.1-0.6-0.3-1.2-0.4c-0.5-0.1-0.7-0.6-0.5-1c0,0,0,0,0-0.1c0.3-0.5,1-0.4,1.2,0.2L69.9,138.4
			C69.9,138.4,69.9,138.4,69.9,138.4z M64.5,114.2c2,0.6,4-0.3,2.1-4.8c-0.3-0.7,0.8-1.1,1.2-0.5c2.2,3.8,4.7,8.9,4.3,10.7
			c0,0.1-0.1,0.2-0.2,0.3c-1.9,1.5-4.7,4.9-7.8-4.9C63.9,114.7,64.1,114.1,64.5,114.2z M77.6,137.7l-6.6-7.8c-0.3-0.3-0.2-0.8,0.2-1
			l3.1-1.4c0.3-0.2,0.8,0,0.9,0.4l3.5,9.2C78.9,137.8,78,138.3,77.6,137.7z M76.2,115.6h1.5c0.4,0,0.7,0.3,0.7,0.7v2.2L76.2,115.6z
			 M100.1,119.7c-0.2,3.9-0.5,6.2-1.5,7.1c-0.3,0.3-0.9,0.2-1.1-0.3c-1.4-3.8-2.4-11-0.3-14.9c0.2-0.5,0.9-0.5,1.2,0
			C99.2,112.9,100.4,115.7,100.1,119.7z M106.5,97.9c-1.1,1.4-3.7,4.3-3.7,7.9c-1.1,0.3-1.1,0.3-1.1,0.3s-1.2-3.4-7.1-0.8
			c-1.8,0.5-5.1,2.4-5.1,8.6c-0.9,0.2-1.5-0.4-1.5-0.4s1.1-5.9-2.6-6.1c-1.6,0.2-3,0.6-3.1,3.4c0,0.5-0.5,0.8-1,0.6
			c-1.1-0.6-2.6-1.4-3.3-2.3c-0.5-0.6-1.2-0.9-1.9-0.9c-0.8,0-1.7,0-2.1,0c-0.2,0-0.4-0.1-0.5-0.3c-1.1-1.6-6.8-9.9-6.8-11.2
			c0-0.8,0.7-1.5,1.2-1.8c0.4-0.2,0.8-0.1,1,0.3c0.8,2.3,3.2,8.8,5.9,9.4c2.5,0.6,4.5,0.4,4.9,0c0,0,3.6-1.8,4.4-5.1
			c0.1-0.5,0.8-0.7,1.1-0.3c1.2,1.4,3.4,3.2,5.9,3.1c0,0,0.1,0,0.1,0c2.6-0.4,7.9-3.5,9.3-7.3c0.1-0.4,0.5-0.5,0.9-0.4
			C103.2,95.5,106.9,96.9,106.5,97.9z M117.7,135.5c-0.1,0.1-0.3,0.1-0.5,0c-2.9-0.9-8.8-5.8-8.8-18.5c-0.5-8,0-13,3.8-14.1
			c0.2,0,0.3,0,0.5,0.1c1.4,0.7,9.2,5.2,9.9,14.7C123.3,123.5,124.2,132.6,117.7,135.5z"/>
		<path class="st0" d="M70.5,164.5c0,0-0.9-3.8,4.4-5.9c4.4-2.1,4.6-3.4,7.8-3.1c2.4-0.2,9-0.2,11.5-2.8c1.3,1.3,2.7,2.2,1,4.6
			c-1.7,1.4-7.8,3.3-11.7,3.2c-3.6,1.3-6.6,2.7-7.9,5.5C72.4,166.8,71.6,166.9,70.5,164.5z"/>
	</g>
</g>
<g id="Calque_2">
</g>
</svg>
